{
  "accessors": [
    {
      "bufferView": 2,
      "componentType": 5126,
      "count": 2146,
      "max": [
        18.691768646240234,
        6.1882390975952148,
        3.4636785984039307
      ],
      "min": [
        -18.691780090332031,
        -24.662410736083984,
        -2.3193268775939941
      ],
      "type": "VEC3"
    },
    {
      "bufferView": 2,
      "byteOffset": 25752,
      "componentType": 5126,
      "count": 2146,
      "max": [
        1,
        1,
        1
      ],
      "min": [
        -1,
        -1,
        -1
      ],
      "type": "VEC3"
    },
    {
      "bufferView": 1,
      "componentType": 5126,
      "count": 2146,
      "max": [
        0.50767964124679565,
        0.98458003997802734
      ],
      "min": [
        0.036802470684051514,
        0.018473595380783081
      ],
      "type": "VEC2"
    },
    {
      "bufferView": 0,
      "componentType": 5125,
      "count": 6528,
      "max": [
        2145
      ],
      "min": [
        0
      ],
      "type": "SCALAR"
    },
    {
      "bufferView": 2,
      "byteOffset": 51504,
      "componentType": 5126,
      "count": 1430,
      "max": [
        18.691768646240234,
        6.1882390975952148,
        3.4585988521575928
      ],
      "min": [
        -18.691780090332031,
        -24.662410736083984,
        -2.3145523071289062
      ],
      "type": "VEC3"
    },
    {
      "bufferView": 2,
      "byteOffset": 68664,
      "componentType": 5126,
      "count": 1430,
      "max": [
        1,
        1,
        1
      ],
      "min": [
        -1,
        -1,
        -1
      ],
      "type": "VEC3"
    },
    {
      "bufferView": 1,
      "byteOffset": 17168,
      "componentType": 5126,
      "count": 1430,
      "max": [
        0.95918679237365723,
        0.9829176664352417
      ],
      "min": [
        0.53882521390914917,
        0.017140418291091919
      ],
      "type": "VEC2"
    },
    {
      "bufferView": 0,
      "byteOffset": 26112,
      "componentType": 5125,
      "count": 2400,
      "max": [
        1429
      ],
      "min": [
        0
      ],
      "type": "SCALAR"
    }
  ],
  "asset": {
    "extras": {
      "author": "ndgb (https://sketchfab.com/ndgb)",
      "license": "CC-BY-4.0 (http://creativecommons.org/licenses/by/4.0/)",
      "source": "https://sketchfab.com/3d-models/recognizer-tron-851e7e3632df4f0587c15c318eae496d",
      "title": "Recognizer (Tron)"
    },
    "generator": "Sketchfab-9.41.1",
    "version": "2.0"
  },
  "bufferViews": [
    {
      "buffer": 0,
      "byteLength": 35712,
      "byteOffset": 0,
      "name": "floatBufferViews",
      "target": 34963
    },
    {
      "buffer": 0,
      "byteLength": 28608,
      "byteOffset": 35712,
      "byteStride": 8,
      "name": "floatBufferViews",
      "target": 34962
    },
    {
      "buffer": 0,
      "byteLength": 85824,
      "byteOffset": 64320,
      "byteStride": 12,
      "name": "floatBufferViews",
      "target": 34962
    }
  ],
  "buffers": [
    {
      "byteLength": 150144,
      "uri": "scene.bin"
    }
  ],
  "materials": [
    {
      "doubleSided": true,
      "emissiveFactor": [
        1,
        0,
        0
      ],
      "name": "Trim",
      "pbrMetallicRoughness": {
        "baseColorFactor": [
          0,
          0,
          0,
          1
        ],
        "metallicFactor": 0,
        "roughnessFactor": 1
      }
    },
    {
      "doubleSided": true,
      "emissiveFactor": [
        0,
        0,
        0
      ],
      "name": "Main",
      "pbrMetallicRoughness": {
        "baseColorFactor": [
          0.0052213723790463301,
          0.016789177993879932,
          0,
          1
        ],
        "metallicFactor": 0,
        "roughnessFactor": 1
      }
    }
  ],
  "meshes": [
    {
      "primitives": [
        {
          "attributes": {
            "NORMAL": 1,
            "POSITION": 0,
            "TEXCOORD_0": 2
          },
          "indices": 3,
          "material": 0,
          "mode": 4
        }
      ]
    },
    {
      "primitives": [
        {
          "attributes": {
            "NORMAL": 5,
            "POSITION": 4,
            "TEXCOORD_0": 6
          },
          "indices": 7,
          "material": 1,
          "mode": 4
        }
      ]
    }
  ],
  "nodes": [
    {
      "children": [
        1
      ],
      "name": "RootNode (gltf orientation matrix)",
      "rotation": [
        -0.70710678118654746,
        -0,
        -0,
        0.70710678118654757
      ]
    },
    {
      "children": [
        2
      ],
      "matrix": [
        15.035138130187988,
        0,
        0,
        0,
        0,
        15.035138130187988,
        0,
        0,
        0,
        0,
        15.035138130187988,
        0,
        0,
        0,
        0,
        1
      ],
      "name": "RootNode (model correction matrix)"
    },
    {
      "children": [
        3
      ],
      "name": "root"
    },
    {
      "children": [
        4
      ],
      "matrix": [
        1,
        0,
        0,
        0,
        0,
        2.2204460492503131e-16,
        1,
        0,
        0,
        -1,
        2.2204460492503131e-16,
        0,
        0,
        0,
        0,
        1
      ],
      "name": "GLTF_SceneRootNode"
    },
    {
      "children": [
        5,
        6
      ],
      "matrix": [
        0.06751580536365509,
        0,
        0,
        0,
        0,
        0.06751580536365509,
        0,
        0,
        0,
        0,
        0.06751580536365509,
        0,
        0,
        0,
        0,
        1
      ],
      "name": "Recognizer_0"
    },
    {
      "mesh": 0,
      "name": ""
    },
    {
      "mesh": 1,
      "name": ""
    }
  ],
  "scene": 0,
  "scenes": [
    {
      "name": "OSG_Scene",
      "nodes": [
        0
      ]
    }
  ]
}

